# xmcd
#
# Track frame offsets:
#	150
#	38220
#	55335
#	72170
#	79197
#	103680
#	142105
#	161120
#	179737
#	206542
#	222375
#
# Disc length: 3537 seconds
#
# Revision: 1
# Processed by: cddbd v1.5.2PL0 Copyright (c) Steve Scherf et al.
# Submitted via: EZCDAudioConverter 1.3.2.1
#
DISCID=ab0dcf0b
DTITLE=Charles Ford Band - The Charles Ford Band
DYEAR=1972
DGENRE=Blues
TTITLE0=Blue And Lonesome
TTITLE1=Gibson Creek Shuffle
TTITLE2=My Time After Awhile
TTITLE3=Rest My Mind On Jesus
TTITLE4=Reconsider This
TTITLE5=Black Night
TTITLE6=Wild Woman
TTITLE7=I Know What You're Putting Down
TTITLE8=Live The Life I Love
TTITLE9=Tell Him I Was Flyin'
TTITLE10=The Promise
EXTD=
EXTT0=
EXTT1=
EXTT2=
EXTT3=
EXTT4=
EXTT5=
EXTT6=
EXTT7=
EXTT8=
EXTT9=
EXTT10=
PLAYORDER=
